<?xml version="1.0" standalone="no"?>
<!DOCTYPE svg PUBLIC "-//W3C//DTD SVG 20010904//EN"
 "http://www.w3.org/TR/2001/REC-SVG-20010904/DTD/svg10.dtd">
<svg version="1.0" xmlns="http://www.w3.org/2000/svg"
 width="1356.000000pt" height="1356.000000pt" viewBox="0 0 1356.000000 1356.000000"
 preserveAspectRatio="xMidYMid meet">
<metadata>
Created by potrace 1.11, written by Peter Selinger 2001-2013
</metadata>
<g transform="translate(0.000000,1356.000000) scale(0.100000,-0.100000)"
fill="#000000" stroke="none">
<path d="M9065 13254 c-104 -29 -212 -61 -240 -69 -27 -8 -108 -31 -180 -51
-71 -19 -143 -39 -160 -45 -16 -5 -190 -54 -385 -109 -195 -55 -377 -107 -405
-115 -27 -8 -195 -55 -372 -105 -178 -50 -334 -95 -348 -100 -14 -5 -25 -7
-25 -5 0 2 -11 0 -25 -5 -14 -5 -171 -51 -348 -101 -661 -187 -922 -260 -937
-264 -8 -2 -231 -65 -495 -140 -264 -75 -487 -138 -495 -140 -8 -2 -103 -29
-210 -60 -107 -31 -217 -63 -245 -70 -95 -25 -487 -136 -655 -185 -71 -21
-386 -110 -410 -115 -8 -2 -100 -28 -203 -57 l-188 -54 161 -194 c89 -107 179
-215 200 -240 21 -25 201 -241 400 -480 199 -239 372 -446 383 -460 12 -14 76
-90 142 -170 66 -80 147 -177 182 -217 l62 -72 60 44 c361 266 888 522 1386
674 132 40 208 61 241 67 15 3 31 7 36 10 4 3 16 7 26 9 9 1 70 15 135 29 151
34 348 69 452 81 77 9 140 17 165 20 36 5 178 14 295 20 97 4 99 4 65 -12 -19
-8 -42 -16 -50 -18 -8 -2 -53 -15 -100 -30 -47 -14 -137 -42 -200 -62 -126
-39 -344 -110 -375 -123 -11 -4 -99 -38 -195 -76 -625 -244 -1129 -598 -1476
-1037 l-63 -80 42 -52 c23 -29 201 -243 396 -476 194 -233 370 -444 390 -468
20 -25 50 -61 67 -80 17 -20 81 -97 142 -171 61 -74 117 -142 125 -150 7 -8
69 -82 137 -165 69 -82 127 -152 130 -155 4 -4 286 -344 306 -369 2 -2 54 12
116 32 62 19 181 56 263 82 83 26 200 63 260 82 61 19 166 52 235 73 106 33
470 146 1255 392 88 27 187 58 220 68 93 28 202 63 430 135 116 37 224 70 240
75 17 4 66 19 110 33 44 14 262 82 485 152 223 70 461 145 530 167 69 22 136
42 149 44 14 3 28 7 32 9 3 3 195 64 425 136 231 72 527 164 659 206 132 41
245 76 250 77 6 2 17 6 25 9 8 3 141 45 295 92 154 48 351 109 439 136 87 27
160 49 162 49 14 0 -2 30 -38 69 -24 26 -57 62 -73 81 -62 70 -209 236 -236
265 -14 17 -66 75 -114 130 -48 55 -118 134 -155 175 -75 84 -152 171 -385
435 -88 99 -173 196 -191 215 -17 19 -86 97 -153 173 -68 75 -126 137 -130
137 -3 0 -15 -6 -26 -14 -11 -7 -40 -24 -65 -38 -25 -14 -126 -71 -225 -128
-99 -57 -196 -112 -215 -122 -19 -10 -42 -23 -50 -28 -8 -5 -91 -52 -185 -103
-723 -398 -1247 -648 -1609 -768 -118 -40 -258 -80 -262 -76 -2 2 49 34 114
72 100 59 292 180 371 234 13 9 31 21 39 26 37 24 349 240 402 278 32 23 68
49 80 57 12 8 63 46 114 83 50 37 102 76 114 85 53 38 399 305 422 325 14 12
43 35 65 52 22 16 46 36 55 45 9 8 31 27 50 41 19 15 46 37 60 48 14 12 47 41
74 64 102 88 270 246 294 278 12 17 13 16 -51 89 -33 37 -341 384 -414 466
-35 40 -72 82 -83 94 -55 63 -329 373 -368 415 -33 36 -157 177 -198 224 -16
19 -34 39 -40 45 -5 6 -97 110 -204 231 -107 121 -199 225 -205 231 -5 6 -70
79 -144 162 -73 84 -141 152 -150 151 -9 0 -101 -25 -206 -55z"/>
<path d="M2482 11172 c-46 -43 -366 -349 -427 -407 -61 -59 -401 -384 -465
-445 -30 -29 -131 -126 -225 -215 -93 -90 -187 -179 -208 -198 -37 -36 -58
-84 -178 -412 -17 -44 -34 -89 -39 -100 -9 -22 -83 -229 -179 -503 -106 -300
-283 -854 -328 -1022 -8 -30 -25 -91 -38 -135 -19 -63 -106 -399 -130 -500
-10 -41 -46 -201 -51 -220 -2 -11 -6 -31 -9 -45 -4 -14 -8 -36 -11 -50 -2 -14
-13 -68 -24 -120 -23 -111 -28 -139 -36 -200 -3 -25 -8 -47 -9 -50 -2 -3 -6
-26 -10 -50 -3 -25 -10 -70 -15 -100 -5 -30 -12 -71 -14 -90 -17 -136 -37
-291 -41 -325 -12 -92 -17 -162 -32 -385 -14 -219 -7 -849 11 -995 2 -16 7
-61 11 -100 3 -38 8 -81 10 -95 2 -14 6 -47 10 -75 8 -67 15 -114 30 -207 5
-30 19 -106 31 -165 2 -13 6 -33 8 -45 63 -331 204 -784 356 -1143 47 -111
217 -459 279 -573 57 -103 202 -344 206 -340 1 2 -6 43 -15 91 -10 48 -21 107
-24 130 -4 23 -8 53 -11 67 -9 51 -27 203 -40 335 -26 259 -26 848 0 1085 2
19 6 62 9 95 9 90 17 157 21 185 2 14 7 45 10 70 9 66 12 86 40 245 12 71 37
193 55 270 12 50 24 99 26 110 21 106 142 477 211 643 86 208 237 507 219 432
-4 -14 -29 -110 -56 -215 -27 -104 -51 -203 -54 -220 -3 -16 -19 -93 -35 -170
-16 -77 -32 -158 -35 -180 -4 -22 -13 -78 -21 -125 -8 -47 -17 -105 -20 -130
-3 -25 -7 -56 -10 -70 -5 -25 -7 -46 -20 -165 -3 -33 -8 -73 -10 -90 -2 -16
-7 -66 -10 -110 -4 -44 -9 -96 -11 -115 -19 -184 -26 -997 -11 -1285 11 -206
25 -432 32 -510 2 -22 6 -78 10 -123 3 -46 8 -98 10 -115 2 -18 6 -66 10 -107
3 -41 7 -88 10 -105 2 -16 6 -66 10 -110 5 -52 13 -87 23 -99 10 -10 80 -73
157 -139 77 -66 154 -132 170 -146 114 -101 609 -482 709 -546 l29 -19 -36 50
c-77 107 -150 281 -181 429 -19 91 -19 316 0 420 48 264 167 536 363 835 31
47 59 90 64 95 4 6 45 61 92 123 186 247 390 477 695 782 245 245 300 297 635
601 68 62 451 396 560 489 28 23 61 52 75 64 14 11 52 44 85 71 33 28 62 52
65 55 3 3 32 28 65 55 33 28 62 52 65 55 3 3 40 35 83 70 79 65 115 118 265
380 10 19 66 114 124 210 57 97 107 182 111 190 4 8 16 29 26 45 22 36 102
172 286 485 76 129 189 322 252 428 l114 192 -63 77 c-35 43 -73 89 -84 103
-12 14 -86 102 -164 195 -78 94 -149 179 -158 190 -9 11 -297 357 -640 768
-539 647 -625 746 -641 738 -34 -19 -126 -127 -197 -232 -152 -223 -380 -655
-632 -1199 -16 -36 -47 -101 -67 -145 -20 -44 -80 -174 -132 -290 -52 -115
-104 -230 -115 -255 -11 -25 -58 -128 -103 -230 -46 -102 -95 -212 -110 -245
-32 -72 -57 -128 -78 -175 -8 -19 -33 -75 -56 -123 -23 -49 -41 -91 -41 -92 0
-2 -17 -41 -38 -87 -22 -46 -76 -164 -122 -263 -112 -242 -211 -441 -275 -550
-74 -127 -103 -158 -52 -55 44 90 80 169 117 260 12 30 28 69 35 85 7 17 27
71 45 120 39 109 62 173 89 245 11 30 36 109 56 175 21 66 44 140 52 165 18
56 150 507 168 575 15 58 112 402 156 555 17 58 39 137 49 175 63 233 253 829
325 1020 52 136 77 200 95 240 10 22 30 69 45 105 42 102 153 316 214 415 56
91 178 257 193 263 4 2 8 7 8 12 0 7 -90 119 -194 240 -20 24 -401 481 -1018
1222 l-297 357 -39 -37z"/>
<path d="M13245 8790 c-11 -5 -117 -38 -235 -75 -118 -37 -278 -86 -355 -110
-245 -77 -785 -245 -920 -287 -71 -22 -137 -42 -145 -45 -8 -4 -17 -7 -20 -8
-54 -16 -197 -60 -360 -112 -113 -35 -212 -66 -220 -68 -8 -2 -172 -53 -365
-114 -754 -236 -1031 -323 -1045 -326 -8 -2 -116 -36 -240 -75 -292 -91 -317
-99 -495 -155 -82 -26 -206 -65 -275 -87 -69 -22 -134 -41 -145 -44 -11 -2
-31 -8 -45 -13 -14 -5 -92 -31 -175 -56 -82 -26 -204 -64 -270 -84 -66 -21
-174 -55 -240 -76 -254 -78 -442 -136 -480 -150 -22 -7 -94 -30 -160 -50 -66
-20 -163 -50 -215 -67 -52 -16 -102 -32 -110 -34 -8 -2 -55 -16 -104 -31 l-89
-28 -52 -90 c-29 -50 -157 -268 -285 -485 -128 -217 -264 -449 -303 -515 -39
-66 -90 -153 -115 -194 -24 -41 -52 -88 -62 -105 -10 -17 -48 -83 -85 -146
-38 -63 -79 -133 -91 -156 -14 -23 -84 -93 -165 -164 -77 -67 -160 -140 -182
-160 -117 -104 -261 -232 -326 -290 -41 -36 -85 -76 -100 -90 -14 -14 -76 -70
-136 -124 -61 -55 -168 -154 -240 -220 -71 -67 -161 -150 -199 -186 -98 -91
-659 -651 -731 -730 -148 -161 -236 -262 -364 -415 -9 -11 -55 -72 -102 -135
-277 -370 -379 -606 -435 -1010 -10 -76 -12 -275 -2 -337 4 -32 10 -71 13 -88
7 -45 34 -132 62 -200 58 -139 188 -293 317 -379 113 -75 308 -159 418 -180
13 -2 43 -9 68 -14 25 -6 63 -13 85 -16 23 -4 52 -8 65 -11 123 -24 565 -24
730 0 14 2 52 6 85 10 58 6 76 9 148 20 35 6 134 23 169 29 464 82 1083 279
1672 530 182 78 232 101 416 189 58 28 107 51 110 52 9 2 294 147 358 181 186
101 228 124 322 177 19 11 55 31 80 45 450 251 1106 686 1600 1060 299 226
737 583 906 737 11 10 131 116 168 148 24 21 202 186 315 292 128 120 540 534
667 670 151 163 231 250 269 294 17 19 35 39 40 45 6 6 39 45 75 86 36 41 67
77 70 80 80 80 539 653 734 917 47 64 146 199 208 283 50 69 138 193 275 390
55 79 515 767 527 787 3 6 8 36 11 65 7 72 7 380 1 409 -3 13 -8 56 -11 94 -3
39 -8 82 -10 95 -3 14 -7 41 -10 60 -3 19 -9 58 -15 85 -5 28 -11 62 -14 76
-15 89 -123 448 -161 534 -8 17 -21 47 -29 68 -16 39 -19 41 -51 27z m-2205
-1955 c47 -4 87 -8 90 -10 3 -2 29 -6 59 -10 76 -9 242 -60 328 -100 170 -79
327 -212 416 -355 56 -91 154 -304 164 -357 20 -110 -8 -307 -60 -423 -59
-132 -75 -163 -127 -250 -31 -52 -70 -113 -86 -136 -16 -23 -44 -63 -63 -90
-36 -51 -68 -91 -186 -234 -200 -242 -536 -581 -899 -905 -99 -88 -420 -361
-521 -444 -11 -9 -54 -43 -95 -76 -41 -33 -77 -62 -80 -65 -6 -7 -401 -315
-455 -355 -22 -16 -44 -33 -50 -38 -34 -29 -618 -456 -749 -548 -27 -19 -65
-46 -85 -60 -532 -378 -776 -533 -1136 -724 -60 -32 -114 -61 -120 -65 -19
-14 -579 -296 -645 -324 -36 -16 -92 -41 -125 -56 -58 -26 -121 -51 -630 -249
-352 -136 -507 -188 -730 -246 -106 -27 -250 -61 -300 -69 -258 -43 -267 -45
-360 -52 -44 -3 -93 -7 -110 -9 -41 -6 -332 -6 -370 -1 -16 2 -57 7 -90 11
-33 3 -72 8 -87 10 -16 3 -43 7 -60 10 -151 25 -353 106 -458 184 -87 65 -164
156 -202 241 -45 99 -65 260 -46 377 52 318 261 671 648 1097 79 87 284 293
356 357 33 30 78 70 100 89 39 35 151 131 189 161 11 10 49 41 85 71 324 270
1022 804 1385 1060 110 77 492 345 515 361 170 114 452 300 557 366 112 70
142 95 190 155 72 90 255 272 370 367 48 41 90 77 93 80 18 21 281 210 410
294 385 253 778 463 1200 641 107 45 316 121 354 129 11 3 40 11 65 20 41 13
157 43 251 65 242 56 473 93 665 106 44 4 81 7 82 8 5 5 280 -2 353 -9z"/>
<path d="M10667 6644 c-1 -2 -42 -6 -91 -9 -49 -4 -96 -8 -105 -10 -9 -1 -45
-6 -81 -10 -36 -4 -67 -8 -70 -10 -3 -2 -30 -6 -60 -10 -30 -4 -99 -15 -153
-26 -53 -10 -110 -21 -125 -24 -42 -7 -295 -64 -317 -71 -11 -3 -58 -61 -105
-127 -125 -178 -406 -533 -540 -681 -188 -209 -253 -278 -405 -430 -431 -432
-941 -845 -1480 -1198 -113 -74 -268 -171 -323 -203 -45 -27 -155 -91 -170
-100 -19 -11 -206 -115 -292 -163 -121 -66 -682 -342 -696 -342 -2 0 -27 -11
-56 -24 -113 -51 -151 -67 -235 -102 -49 -20 -101 -42 -118 -49 -190 -84
-1061 -395 -1107 -395 -6 0 -18 -8 -27 -19 -9 -10 -55 -60 -102 -112 -212
-231 -344 -403 -494 -644 -62 -99 -140 -279 -170 -390 -39 -146 -32 -303 17
-402 89 -179 385 -335 698 -369 30 -3 66 -8 80 -10 28 -5 309 -5 355 0 17 2
62 6 100 10 79 8 86 9 245 37 123 21 384 84 515 124 44 13 83 24 87 25 4 0 85
28 179 60 837 292 1800 788 2799 1444 96 63 195 128 220 145 169 118 401 279
421 293 54 39 596 445 614 460 11 10 70 56 130 104 61 48 124 98 141 113 17
14 52 44 80 66 66 54 449 384 499 430 480 445 777 759 1020 1079 300 396 436
733 378 931 -46 153 -156 311 -283 405 -128 95 -340 173 -530 195 -63 8 -437
15 -443 9z"/>
</g>
</svg>
